<svg width="38" height="38" viewBox="0 0 38 38" fill="none" xmlns="http://www.w3.org/2000/svg">
<g clip-path="url(#clip0_98977_528)">
<path d="M28.4997 9.49996H25.333C25.333 6.00079 22.4988 3.16663 18.9997 3.16663C15.5005 3.16663 12.6663 6.00079 12.6663 9.49996H9.49967C7.75801 9.49996 6.33301 10.925 6.33301 12.6666V31.6666C6.33301 33.4083 7.75801 34.8333 9.49967 34.8333H28.4997C30.2413 34.8333 31.6663 33.4083 31.6663 31.6666V12.6666C31.6663 10.925 30.2413 9.49996 28.4997 9.49996ZM18.9997 6.33329C20.7413 6.33329 22.1663 7.75829 22.1663 9.49996H15.833C15.833 7.75829 17.258 6.33329 18.9997 6.33329ZM28.4997 31.6666H9.49967V12.6666H12.6663V15.8333C12.6663 16.7041 13.3788 17.4166 14.2497 17.4166C15.1205 17.4166 15.833 16.7041 15.833 15.8333V12.6666H22.1663V15.8333C22.1663 16.7041 22.8788 17.4166 23.7497 17.4166C24.6205 17.4166 25.333 16.7041 25.333 15.8333V12.6666H28.4997V31.6666Z" fill="#002F52"/>
</g>
<defs>
<clipPath id="clip0_98977_528">
<rect width="38" height="38" fill="white"/>
</clipPath>
</defs>
</svg>
